%TF.GenerationSoftware,KiCad,Pcbnew,10.0.2*%
%TF.CreationDate,2026-08-26T17:53:12+08:00*%
%TF.ProjectId,mini-games,6d696e69-2d67-4616-9d65-732e6b696361,rev?*%
%TF.SameCoordinates,Original*%
%TF.FileFunction,Soldermask,Top*%
%TF.FilePolarity,Negative*%
%FSLAX46Y46*%
G04 Gerber Fmt 4.6, Leading zero omitted, Abs format (unit mm)*
G04 Created by KiCad (PCBNEW 10.0.2) date 2026-08-26 17:53:12*
%MOMM*%
%LPD*%
G01*
G04 APERTURE LIST*
G04 Aperture macros list*
%AMRoundRect*
0 Rectangle with rounded corners*
0 $1 Rounding radius*
0 $2 $3 $4 $5 $6 $7 $8 $9 X,Y pos of 4 corners*
0 Add a 4 corners polygon primitive as box body*
4,1,4,$2,$3,$4,$5,$6,$7,$8,$9,$2,$3,0*
0 Add four circle primitives for the rounded corners*
1,1,$1+$1,$2,$3*
1,1,$1+$1,$4,$5*
1,1,$1+$1,$6,$7*
1,1,$1+$1,$8,$9*
0 Add four rect primitives between the rounded corners*
20,1,$1+$1,$2,$3,$4,$5,0*
20,1,$1+$1,$4,$5,$6,$7,0*
20,1,$1+$1,$6,$7,$8,$9,0*
20,1,$1+$1,$8,$9,$2,$3,0*%
G04 Aperture macros list end*
%ADD10RoundRect,0.140000X0.140000X0.170000X-0.140000X0.170000X-0.140000X-0.170000X0.140000X-0.170000X0*%
%ADD11RoundRect,0.218750X-0.218750X-0.256250X0.218750X-0.256250X0.218750X0.256250X-0.218750X0.256250X0*%
%ADD12RoundRect,0.140000X-0.140000X-0.170000X0.140000X-0.170000X0.140000X0.170000X-0.140000X0.170000X0*%
%ADD13RoundRect,0.250000X0.250000X0.550000X-0.250000X0.550000X-0.250000X-0.550000X0.250000X-0.550000X0*%
%ADD14C,2.000000*%
%ADD15R,2.000000X2.000000*%
%ADD16R,1.700000X1.700000*%
%ADD17C,1.700000*%
%ADD18RoundRect,0.225000X-0.375000X0.225000X-0.375000X-0.225000X0.375000X-0.225000X0.375000X0.225000X0*%
%ADD19RoundRect,0.135000X-0.135000X-0.185000X0.135000X-0.185000X0.135000X0.185000X-0.135000X0.185000X0*%
%ADD20RoundRect,0.135000X-0.185000X0.135000X-0.185000X-0.135000X0.185000X-0.135000X0.185000X0.135000X0*%
%ADD21RoundRect,0.140000X-0.021213X0.219203X-0.219203X0.021213X0.021213X-0.219203X0.219203X-0.021213X0*%
%ADD22RoundRect,0.150000X-0.825000X-0.150000X0.825000X-0.150000X0.825000X0.150000X-0.825000X0.150000X0*%
%ADD23R,2.410000X3.300000*%
%ADD24RoundRect,0.140000X0.170000X-0.140000X0.170000X0.140000X-0.170000X0.140000X-0.170000X-0.140000X0*%
%ADD25R,1.500000X1.500000*%
%ADD26C,1.600000*%
%ADD27RoundRect,0.140000X0.219203X0.021213X0.021213X0.219203X-0.219203X-0.021213X-0.021213X-0.219203X0*%
%ADD28RoundRect,0.135000X0.135000X0.185000X-0.135000X0.185000X-0.135000X-0.185000X0.135000X-0.185000X0*%
%ADD29RoundRect,0.225000X0.375000X-0.225000X0.375000X0.225000X-0.375000X0.225000X-0.375000X-0.225000X0*%
%ADD30RoundRect,0.135000X0.185000X-0.135000X0.185000X0.135000X-0.185000X0.135000X-0.185000X-0.135000X0*%
%ADD31RoundRect,0.162500X-0.650000X-0.162500X0.650000X-0.162500X0.650000X0.162500X-0.650000X0.162500X0*%
%ADD32RoundRect,0.140000X0.021213X-0.219203X0.219203X-0.021213X-0.021213X0.219203X-0.219203X0.021213X0*%
%ADD33RoundRect,0.150000X-0.150000X-0.575000X0.150000X-0.575000X0.150000X0.575000X-0.150000X0.575000X0*%
%ADD34RoundRect,0.075000X-0.075000X-0.650000X0.075000X-0.650000X0.075000X0.650000X-0.075000X0.650000X0*%
%ADD35O,1.000000X2.100000*%
%ADD36O,1.000000X1.600000*%
%ADD37RoundRect,0.200000X0.200000X0.800000X-0.200000X0.800000X-0.200000X-0.800000X0.200000X-0.800000X0*%
%ADD38RoundRect,0.150000X-0.512500X-0.150000X0.512500X-0.150000X0.512500X0.150000X-0.512500X0.150000X0*%
%ADD39RoundRect,0.250000X-0.350000X0.450000X-0.350000X-0.450000X0.350000X-0.450000X0.350000X0.450000X0*%
%ADD40RoundRect,0.225000X-0.225000X-0.375000X0.225000X-0.375000X0.225000X0.375000X-0.225000X0.375000X0*%
%ADD41RoundRect,0.050000X-0.350000X-0.050000X0.350000X-0.050000X0.350000X0.050000X-0.350000X0.050000X0*%
%ADD42RoundRect,0.050000X-0.050000X-0.350000X0.050000X-0.350000X0.050000X0.350000X-0.050000X0.350000X0*%
%ADD43R,3.400000X3.400000*%
G04 APERTURE END LIST*
D10*
%TO.C,C9*%
X98750000Y-71850000D03*
X97790000Y-71850000D03*
%TD*%
D11*
%TO.C,D1*%
X62637500Y-75755000D03*
X64212500Y-75755000D03*
%TD*%
D12*
%TO.C,C1*%
X56940000Y-65200000D03*
X57900000Y-65200000D03*
%TD*%
D13*
%TO.C,L1*%
X107201472Y-66850000D03*
X105201472Y-66850000D03*
%TD*%
D14*
%TO.C,SW8*%
X99000000Y-36500000D03*
D15*
X102250000Y-35750000D03*
D14*
X105500000Y-36500000D03*
X99000000Y-41000000D03*
D15*
X102250000Y-41750000D03*
D14*
X105500000Y-41000000D03*
%TD*%
D16*
%TO.C,J2*%
X88890000Y-31750000D03*
D17*
X86350000Y-31750000D03*
X83810000Y-31750000D03*
X81270000Y-31750000D03*
X78730000Y-31750000D03*
X76190000Y-31750000D03*
X73650000Y-31750000D03*
X71110000Y-31750000D03*
%TD*%
D18*
%TO.C,D4*%
X48275000Y-76055000D03*
X48275000Y-79355000D03*
%TD*%
D15*
%TO.C,J5*%
X59000000Y-43000000D03*
%TD*%
D19*
%TO.C,R1*%
X72940000Y-74700000D03*
X73960000Y-74700000D03*
%TD*%
D14*
%TO.C,SW6*%
X110000000Y-60375000D03*
D15*
X113250000Y-59625000D03*
D14*
X116500000Y-60375000D03*
X110000000Y-64875000D03*
D15*
X113250000Y-65625000D03*
D14*
X116500000Y-64875000D03*
%TD*%
D20*
%TO.C,R4*%
X102450000Y-66300000D03*
X102450000Y-67320000D03*
%TD*%
D12*
%TO.C,C18*%
X107790000Y-69500000D03*
X108750000Y-69500000D03*
%TD*%
D21*
%TO.C,C4*%
X98550000Y-75750000D03*
X97871178Y-76428822D03*
%TD*%
D12*
%TO.C,C11*%
X103770000Y-78600000D03*
X104730000Y-78600000D03*
%TD*%
D22*
%TO.C,U4*%
X53625000Y-74745000D03*
X53625000Y-76015000D03*
X53625000Y-77285000D03*
X53625000Y-78555000D03*
X58575000Y-78555000D03*
X58575000Y-77285000D03*
X58575000Y-76015000D03*
X58575000Y-74745000D03*
D23*
X56100000Y-76650000D03*
%TD*%
D24*
%TO.C,C14*%
X56650000Y-68910000D03*
X56650000Y-67950000D03*
%TD*%
D25*
%TO.C,SW12*%
X46750000Y-72000000D03*
D26*
X49290000Y-72000000D03*
X44210000Y-72000000D03*
%TD*%
D14*
%TO.C,SW2*%
X43500000Y-40375000D03*
D15*
X46750000Y-39625000D03*
D14*
X50000000Y-40375000D03*
X43500000Y-44875000D03*
D15*
X46750000Y-45625000D03*
D14*
X50000000Y-44875000D03*
%TD*%
D12*
%TO.C,C13*%
X62200000Y-69100000D03*
X63160000Y-69100000D03*
%TD*%
D15*
%TO.C,J6*%
X59000000Y-38000000D03*
%TD*%
D27*
%TO.C,C5*%
X103239411Y-69089411D03*
X102560589Y-68410589D03*
%TD*%
D10*
%TO.C,C10*%
X98750000Y-72800000D03*
X97790000Y-72800000D03*
%TD*%
D28*
%TO.C,R8*%
X51860000Y-76000000D03*
X50840000Y-76000000D03*
%TD*%
D12*
%TO.C,C3*%
X107970000Y-74500000D03*
X108930000Y-74500000D03*
%TD*%
D14*
%TO.C,SW10*%
X99500000Y-50375000D03*
D15*
X102750000Y-49625000D03*
D14*
X106000000Y-50375000D03*
X99500000Y-54875000D03*
D15*
X102750000Y-55625000D03*
D14*
X106000000Y-54875000D03*
%TD*%
D20*
%TO.C,R3*%
X103400000Y-66300000D03*
X103400000Y-67320000D03*
%TD*%
D14*
%TO.C,SW13*%
X110000000Y-40375000D03*
D15*
X113250000Y-39625000D03*
D14*
X116500000Y-40375000D03*
X110000000Y-44875000D03*
D15*
X113250000Y-45625000D03*
D14*
X116500000Y-44875000D03*
%TD*%
%TO.C,SW4*%
X54000000Y-50375000D03*
D15*
X57250000Y-49625000D03*
D14*
X60500000Y-50375000D03*
X54000000Y-54875000D03*
D15*
X57250000Y-55625000D03*
D14*
X60500000Y-54875000D03*
%TD*%
D29*
%TO.C,D3*%
X61800000Y-67500000D03*
X61800000Y-64200000D03*
%TD*%
D30*
%TO.C,R5*%
X92000000Y-77360000D03*
X92000000Y-76340000D03*
%TD*%
D14*
%TO.C,SW3*%
X33000000Y-50375000D03*
D15*
X36250000Y-49625000D03*
D14*
X39500000Y-50375000D03*
X33000000Y-54875000D03*
D15*
X36250000Y-55625000D03*
D14*
X39500000Y-54875000D03*
%TD*%
D31*
%TO.C,U3*%
X97675000Y-60290000D03*
X97675000Y-61560000D03*
X97675000Y-62830000D03*
X97675000Y-64100000D03*
X104850000Y-64100000D03*
X104850000Y-62830000D03*
X104850000Y-61560000D03*
X104850000Y-60290000D03*
%TD*%
D11*
%TO.C,D2*%
X62587500Y-77355000D03*
X64162500Y-77355000D03*
%TD*%
D28*
%TO.C,R10*%
X61309999Y-77350000D03*
X60290001Y-77350000D03*
%TD*%
D14*
%TO.C,SW5*%
X43500000Y-60375000D03*
D15*
X46750000Y-59625000D03*
D14*
X50000000Y-60375000D03*
X43500000Y-64875000D03*
D15*
X46750000Y-65625000D03*
D14*
X50000000Y-64875000D03*
%TD*%
D32*
%TO.C,C2*%
X106960589Y-78639411D03*
X107639411Y-77960589D03*
%TD*%
D24*
%TO.C,C16*%
X92000000Y-79430000D03*
X92000000Y-78470000D03*
%TD*%
D33*
%TO.C,J1*%
X76750000Y-75205000D03*
X77550000Y-75205000D03*
D34*
X78750000Y-75205000D03*
X79750000Y-75205000D03*
X80250000Y-75205000D03*
X81250000Y-75205000D03*
D33*
X82450000Y-75205000D03*
X83250000Y-75205000D03*
X83250000Y-75205000D03*
X82450000Y-75205000D03*
D34*
X81750000Y-75205000D03*
X80750000Y-75205000D03*
X79250000Y-75205000D03*
X78250000Y-75205000D03*
D33*
X77550000Y-75205000D03*
X76750000Y-75205000D03*
D35*
X75680000Y-76120000D03*
D36*
X75680000Y-80300000D03*
D35*
X84320000Y-76120000D03*
D36*
X84320000Y-80300000D03*
%TD*%
D37*
%TO.C,SW1*%
X115450000Y-52000000D03*
X111250000Y-52000000D03*
%TD*%
D19*
%TO.C,R7*%
X97440000Y-70300000D03*
X98460000Y-70300000D03*
%TD*%
D12*
%TO.C,C19*%
X105690000Y-68300000D03*
X106650000Y-68300000D03*
%TD*%
D28*
%TO.C,R11*%
X61359999Y-76050000D03*
X60340001Y-76050000D03*
%TD*%
D12*
%TO.C,C7*%
X107940000Y-72280000D03*
X108900000Y-72280000D03*
%TD*%
%TO.C,C12*%
X107990000Y-73450000D03*
X108950000Y-73450000D03*
%TD*%
D38*
%TO.C,U5*%
X58425000Y-68200000D03*
X58425000Y-70100000D03*
X60700000Y-69150000D03*
%TD*%
D28*
%TO.C,R2*%
X88310000Y-74050000D03*
X87290000Y-74050000D03*
%TD*%
D14*
%TO.C,SW7*%
X120500000Y-50300000D03*
D15*
X123750000Y-49550000D03*
D14*
X127000000Y-50300000D03*
X120500000Y-54800000D03*
D15*
X123750000Y-55550000D03*
D14*
X127000000Y-54800000D03*
%TD*%
D12*
%TO.C,C20*%
X105720000Y-69250000D03*
X106680000Y-69250000D03*
%TD*%
D28*
%TO.C,R12*%
X108600000Y-68450000D03*
X107580000Y-68450000D03*
%TD*%
D10*
%TO.C,C6*%
X102880000Y-78650000D03*
X101920000Y-78650000D03*
%TD*%
D39*
%TO.C,Y1*%
X93450000Y-76800000D03*
X93450000Y-79000000D03*
X95150000Y-79000000D03*
X95150000Y-76800000D03*
%TD*%
D40*
%TO.C,D5*%
X51150000Y-68650000D03*
X54450000Y-68650000D03*
%TD*%
D41*
%TO.C,U1*%
X99950000Y-71200000D03*
X99950000Y-71600000D03*
X99950000Y-72000000D03*
X99950000Y-72400000D03*
X99950000Y-72800000D03*
X99950000Y-73200000D03*
X99950000Y-73600000D03*
X99950000Y-74000000D03*
X99950000Y-74400000D03*
X99950000Y-74800000D03*
X99950000Y-75200000D03*
X99950000Y-75600000D03*
X99950000Y-76000000D03*
X99950000Y-76400000D03*
X99950000Y-76800000D03*
D42*
X100600000Y-77450000D03*
X101000000Y-77450000D03*
X101400000Y-77450000D03*
X101800000Y-77450000D03*
X102200000Y-77450000D03*
X102600000Y-77450000D03*
X103000000Y-77450000D03*
X103400000Y-77450000D03*
X103800000Y-77450000D03*
X104200000Y-77450000D03*
X104600000Y-77450000D03*
X105000000Y-77450000D03*
X105400000Y-77450000D03*
X105800000Y-77450000D03*
X106200000Y-77450000D03*
D41*
X106850000Y-76800000D03*
X106850000Y-76400000D03*
X106850000Y-76000000D03*
X106850000Y-75600000D03*
X106850000Y-75200000D03*
X106850000Y-74800000D03*
X106850000Y-74400000D03*
X106850000Y-74000000D03*
X106850000Y-73600000D03*
X106850000Y-73200000D03*
X106850000Y-72800000D03*
X106850000Y-72400000D03*
X106850000Y-72000000D03*
X106850000Y-71600000D03*
X106850000Y-71200000D03*
D42*
X106200000Y-70550000D03*
X105800000Y-70550000D03*
X105400000Y-70550000D03*
X105000000Y-70550000D03*
X104600000Y-70550000D03*
X104200000Y-70550000D03*
X103800000Y-70550000D03*
X103400000Y-70550000D03*
X103000000Y-70550000D03*
X102600000Y-70550000D03*
X102200000Y-70550000D03*
X101800000Y-70550000D03*
X101400000Y-70550000D03*
X101000000Y-70550000D03*
X100600000Y-70550000D03*
D43*
X103400000Y-74000000D03*
%TD*%
D27*
%TO.C,C15*%
X97439411Y-79639411D03*
X96760589Y-78960589D03*
%TD*%
M02*
