M48
; DRILL file KiCad 10.0.2 date 2026-08-26T17:53:12
; FORMAT={-:-/ absolute / inch / decimal}
; #@! TF.CreationDate,2026-08-26T17:53:12+08:00
; #@! TF.GenerationSoftware,Kicad,Pcbnew,10.0.2
; #@! TF.FileFunction,Plated,1,2,PTH
FMAT,2
INCH
; #@! TA.AperFunction,Plated,PTH,ComponentDrill
T1C0.0079
; #@! TA.AperFunction,Plated,PTH,ViaDrill
T2C0.0118
; #@! TA.AperFunction,Plated,PTH,ComponentDrill
T3C0.0236
; #@! TA.AperFunction,Plated,PTH,ComponentDrill
T4C0.0394
; #@! TA.AperFunction,Plated,PTH,ComponentDrill
T5C0.0433
; #@! TA.AperFunction,Plated,PTH,ComponentDrill
T6C0.0472
%
G90
G05
T1
X2.1811Y-2.9705
X2.1811Y-3.0177
X2.1811Y-3.065
X2.2362Y-2.9705
X2.2362Y-3.0177
X2.2362Y-3.065
T2
X1.9006Y-3.1242
X1.9213Y-2.1496
X2.1122Y-3.0945
X2.1161Y-2.8465
X2.3061Y-2.9427
X2.3228Y-1.4961
X2.5281Y-2.9825
X2.5295Y-2.9016
X2.7303Y-2.9173
X2.7343Y-1.4606
X2.7953Y-2.7008
X2.8872Y-2.8307
X2.8878Y-2.8917
X2.9114Y-2.8071
X3.0531Y-2.9608
X3.2461Y-2.9608
X3.4173Y-3.1614
X3.5433Y-2.8563
X3.622Y-3.0055
X3.676Y-2.9622
X3.7283Y-3.1791
X3.7461Y-2.9705
X3.7982Y-2.6368
X3.8095Y-3.1087
X3.8396Y-2.9753
X3.8425Y-2.4232
X3.8445Y-2.4744
X3.8445Y-2.7323
X3.8455Y-2.3736
X3.8799Y-2.9823
X3.8957Y-2.5315
X3.9057Y-3.0408
X3.9075Y-2.6929
X3.9095Y-2.7284
X3.9193Y-2.6378
X3.937Y-3.0442
X3.939Y-3.0768
X3.9437Y-2.6623
X3.9626Y-2.5256
X3.9744Y-2.9567
X3.9902Y-3.0138
X4.0012Y-2.6502
X4.0126Y-3.0965
X4.0256Y-2.4764
X4.0283Y-2.6844
X4.0479Y-3.099
X4.061Y-3.0
X4.0645Y-2.7201
X4.1102Y-2.874
X4.128Y-2.3736
X4.1299Y-2.4232
X4.1482Y-3.1174
X4.1674Y-2.813
X4.1693Y-2.7207
X4.1745Y-3.0929
X4.1812Y-2.6417
X4.2047Y-2.5079
X4.2717Y-1.9882
X4.2756Y-2.6949
X4.2787Y-2.6524
X4.2795Y-2.7382
X4.2795Y-3.0748
X4.2886Y-2.9331
X4.2976Y-3.0471
X4.3Y-3.0157
X4.3031Y-2.252
X4.3287Y-3.0945
X4.3524Y-3.1181
X4.4213Y-2.9449
X4.439Y-3.0689
X4.5827Y-2.2244
X4.8622Y-2.5827
T4
X2.7996Y-1.25
X2.8996Y-1.25
X2.9996Y-1.25
X3.0996Y-1.25
X3.1996Y-1.25
X3.2996Y-1.25
X3.3996Y-1.25
X3.4996Y-1.25
T5
X1.2992Y-1.9833
X1.2992Y-2.1604
X1.5551Y-1.9833
X1.5551Y-2.1604
X1.7126Y-1.5896
X1.7126Y-1.7667
X1.7126Y-2.377
X1.7126Y-2.5541
X1.9685Y-1.5896
X1.9685Y-1.7667
X1.9685Y-2.377
X1.9685Y-2.5541
X2.126Y-1.9833
X2.126Y-2.1604
X2.3819Y-1.9833
X2.3819Y-2.1604
X3.8976Y-1.437
X3.8976Y-1.6142
X3.9173Y-1.9833
X3.9173Y-2.1604
X4.1535Y-1.437
X4.1535Y-1.6142
X4.1732Y-1.9833
X4.1732Y-2.1604
X4.3307Y-1.5896
X4.3307Y-1.7667
X4.3307Y-2.377
X4.3307Y-2.5541
X4.5866Y-1.5896
X4.5866Y-1.7667
X4.5866Y-2.377
X4.5866Y-2.5541
X4.7441Y-1.9803
X4.7441Y-2.1575
X5.0Y-1.9803
X5.0Y-2.1575
T6
X1.7406Y-2.8346
X1.8406Y-2.8346
X1.9406Y-2.8346
T3
G00X2.9795Y-2.9752
M15
G01X2.9795Y-3.0185
M16
G05
G00X2.9795Y-3.1496
M15
G01X2.9795Y-3.1732
M16
G05
G00X3.3197Y-2.9752
M15
G01X3.3197Y-3.0185
M16
G05
G00X3.3197Y-3.1496
M15
G01X3.3197Y-3.1732
M16
G05
M30
