ISO-10303-21;
HEADER;
/* Generated by software containing ST-Developer
 * from STEP Tools, Inc. (www.steptools.com) 
 */

FILE_DESCRIPTION(
/* description */ (''),
/* implementation_level */ '2;1');

FILE_NAME(
/* name */ 'st7789_display.step',
/* time_stamp */ '2026-08-29T17:10:39+08:00',
/* author */ (''),
/* organization */ (''),
/* preprocessor_version */ 'ST-DEVELOPER v20.1',
/* originating_system */ 'Autodesk Translation Framework v15.8.0.0',
/* authorisation */ '');

FILE_SCHEMA (('AUTOMOTIVE_DESIGN { 1 0 10303 214 3 1 1 }'));
ENDSEC;

DATA;
#10=MECHANICAL_DESIGN_GEOMETRIC_PRESENTATION_REPRESENTATION('',(#13),#529);
#11=SHAPE_REPRESENTATION_RELATIONSHIP('SRR','None',#536,#12);
#12=ADVANCED_BREP_SHAPE_REPRESENTATION('',(#14),#528);
#13=STYLED_ITEM('',(#545),#14);
#14=MANIFOLD_SOLID_BREP('Body1',#325);
#15=CIRCLE('',#349,0.999999999999996);
#16=CIRCLE('',#350,0.999999999999996);
#17=CIRCLE('',#352,1.);
#18=CIRCLE('',#353,1.);
#19=CYLINDRICAL_SURFACE('',#348,0.999999999999996);
#20=CYLINDRICAL_SURFACE('',#351,1.);
#21=FACE_BOUND('',#52,.T.);
#22=FACE_BOUND('',#59,.T.);
#23=FACE_BOUND('',#60,.T.);
#24=FACE_BOUND('',#62,.T.);
#25=FACE_BOUND('',#63,.T.);
#26=FACE_BOUND('',#64,.T.);
#27=FACE_OUTER_BOUND('',#43,.T.);
#28=FACE_OUTER_BOUND('',#44,.T.);
#29=FACE_OUTER_BOUND('',#45,.T.);
#30=FACE_OUTER_BOUND('',#46,.T.);
#31=FACE_OUTER_BOUND('',#47,.T.);
#32=FACE_OUTER_BOUND('',#48,.T.);
#33=FACE_OUTER_BOUND('',#49,.T.);
#34=FACE_OUTER_BOUND('',#50,.T.);
#35=FACE_OUTER_BOUND('',#51,.T.);
#36=FACE_OUTER_BOUND('',#53,.T.);
#37=FACE_OUTER_BOUND('',#54,.T.);
#38=FACE_OUTER_BOUND('',#55,.T.);
#39=FACE_OUTER_BOUND('',#56,.T.);
#40=FACE_OUTER_BOUND('',#57,.T.);
#41=FACE_OUTER_BOUND('',#58,.T.);
#42=FACE_OUTER_BOUND('',#61,.T.);
#43=EDGE_LOOP('',(#211,#212,#213,#214));
#44=EDGE_LOOP('',(#215,#216,#217,#218));
#45=EDGE_LOOP('',(#219,#220,#221,#222));
#46=EDGE_LOOP('',(#223,#224,#225,#226));
#47=EDGE_LOOP('',(#227,#228,#229,#230));
#48=EDGE_LOOP('',(#231,#232,#233,#234));
#49=EDGE_LOOP('',(#235,#236,#237,#238));
#50=EDGE_LOOP('',(#239,#240,#241,#242));
#51=EDGE_LOOP('',(#243,#244,#245,#246));
#52=EDGE_LOOP('',(#247,#248,#249,#250));
#53=EDGE_LOOP('',(#251,#252,#253,#254));
#54=EDGE_LOOP('',(#255,#256,#257,#258));
#55=EDGE_LOOP('',(#259,#260,#261,#262));
#56=EDGE_LOOP('',(#263,#264,#265,#266,#267,#268,#269,#270));
#57=EDGE_LOOP('',(#271,#272,#273,#274,#275,#276,#277,#278));
#58=EDGE_LOOP('',(#279,#280,#281,#282));
#59=EDGE_LOOP('',(#283));
#60=EDGE_LOOP('',(#284));
#61=EDGE_LOOP('',(#285,#286,#287,#288));
#62=EDGE_LOOP('',(#289,#290,#291,#292));
#63=EDGE_LOOP('',(#293));
#64=EDGE_LOOP('',(#294));
#65=LINE('',#443,#103);
#66=LINE('',#445,#104);
#67=LINE('',#447,#105);
#68=LINE('',#448,#106);
#69=LINE('',#452,#107);
#70=LINE('',#454,#108);
#71=LINE('',#456,#109);
#72=LINE('',#457,#110);
#73=LINE('',#459,#111);
#74=LINE('',#460,#112);
#75=LINE('',#464,#113);
#76=LINE('',#466,#114);
#77=LINE('',#468,#115);
#78=LINE('',#469,#116);
#79=LINE('',#472,#117);
#80=LINE('',#474,#118);
#81=LINE('',#475,#119);
#82=LINE('',#478,#120);
#83=LINE('',#480,#121);
#84=LINE('',#481,#122);
#85=LINE('',#483,#123);
#86=LINE('',#484,#124);
#87=LINE('',#488,#125);
#88=LINE('',#490,#126);
#89=LINE('',#492,#127);
#90=LINE('',#493,#128);
#91=LINE('',#495,#129);
#92=LINE('',#496,#130);
#93=LINE('',#501,#131);
#94=LINE('',#507,#132);
#95=LINE('',#512,#133);
#96=LINE('',#514,#134);
#97=LINE('',#516,#135);
#98=LINE('',#517,#136);
#99=LINE('',#519,#137);
#100=LINE('',#520,#138);
#101=LINE('',#522,#139);
#102=LINE('',#523,#140);
#103=VECTOR('',#363,10.);
#104=VECTOR('',#364,10.);
#105=VECTOR('',#365,10.);
#106=VECTOR('',#366,10.);
#107=VECTOR('',#369,10.);
#108=VECTOR('',#370,10.);
#109=VECTOR('',#371,10.);
#110=VECTOR('',#372,10.);
#111=VECTOR('',#375,10.);
#112=VECTOR('',#376,10.);
#113=VECTOR('',#379,10.);
#114=VECTOR('',#380,10.);
#115=VECTOR('',#381,10.);
#116=VECTOR('',#382,10.);
#117=VECTOR('',#385,10.);
#118=VECTOR('',#386,10.);
#119=VECTOR('',#387,10.);
#120=VECTOR('',#390,10.);
#121=VECTOR('',#391,10.);
#122=VECTOR('',#392,10.);
#123=VECTOR('',#395,10.);
#124=VECTOR('',#396,10.);
#125=VECTOR('',#399,10.);
#126=VECTOR('',#400,10.);
#127=VECTOR('',#401,10.);
#128=VECTOR('',#402,10.);
#129=VECTOR('',#405,10.);
#130=VECTOR('',#406,10.);
#131=VECTOR('',#411,0.999999999999996);
#132=VECTOR('',#418,1.);
#133=VECTOR('',#423,10.);
#134=VECTOR('',#424,10.);
#135=VECTOR('',#425,10.);
#136=VECTOR('',#426,10.);
#137=VECTOR('',#429,10.);
#138=VECTOR('',#430,10.);
#139=VECTOR('',#433,10.);
#140=VECTOR('',#434,10.);
#141=VERTEX_POINT('',#441);
#142=VERTEX_POINT('',#442);
#143=VERTEX_POINT('',#444);
#144=VERTEX_POINT('',#446);
#145=VERTEX_POINT('',#450);
#146=VERTEX_POINT('',#451);
#147=VERTEX_POINT('',#453);
#148=VERTEX_POINT('',#455);
#149=VERTEX_POINT('',#462);
#150=VERTEX_POINT('',#463);
#151=VERTEX_POINT('',#465);
#152=VERTEX_POINT('',#467);
#153=VERTEX_POINT('',#471);
#154=VERTEX_POINT('',#473);
#155=VERTEX_POINT('',#477);
#156=VERTEX_POINT('',#479);
#157=VERTEX_POINT('',#486);
#158=VERTEX_POINT('',#487);
#159=VERTEX_POINT('',#489);
#160=VERTEX_POINT('',#491);
#161=VERTEX_POINT('',#498);
#162=VERTEX_POINT('',#500);
#163=VERTEX_POINT('',#504);
#164=VERTEX_POINT('',#506);
#165=VERTEX_POINT('',#510);
#166=VERTEX_POINT('',#511);
#167=VERTEX_POINT('',#513);
#168=VERTEX_POINT('',#515);
#169=EDGE_CURVE('',#141,#142,#65,.T.);
#170=EDGE_CURVE('',#141,#143,#66,.T.);
#171=EDGE_CURVE('',#144,#143,#67,.T.);
#172=EDGE_CURVE('',#142,#144,#68,.T.);
#173=EDGE_CURVE('',#145,#146,#69,.T.);
#174=EDGE_CURVE('',#145,#147,#70,.T.);
#175=EDGE_CURVE('',#148,#147,#71,.T.);
#176=EDGE_CURVE('',#146,#148,#72,.T.);
#177=EDGE_CURVE('',#143,#148,#73,.T.);
#178=EDGE_CURVE('',#147,#144,#74,.T.);
#179=EDGE_CURVE('',#149,#150,#75,.T.);
#180=EDGE_CURVE('',#150,#151,#76,.T.);
#181=EDGE_CURVE('',#152,#151,#77,.T.);
#182=EDGE_CURVE('',#149,#152,#78,.T.);
#183=EDGE_CURVE('',#153,#149,#79,.T.);
#184=EDGE_CURVE('',#154,#152,#80,.T.);
#185=EDGE_CURVE('',#153,#154,#81,.T.);
#186=EDGE_CURVE('',#155,#153,#82,.T.);
#187=EDGE_CURVE('',#156,#154,#83,.T.);
#188=EDGE_CURVE('',#155,#156,#84,.T.);
#189=EDGE_CURVE('',#150,#155,#85,.T.);
#190=EDGE_CURVE('',#151,#156,#86,.T.);
#191=EDGE_CURVE('',#157,#158,#87,.T.);
#192=EDGE_CURVE('',#158,#159,#88,.T.);
#193=EDGE_CURVE('',#160,#159,#89,.T.);
#194=EDGE_CURVE('',#157,#160,#90,.T.);
#195=EDGE_CURVE('',#159,#141,#91,.T.);
#196=EDGE_CURVE('',#142,#160,#92,.T.);
#197=EDGE_CURVE('',#161,#161,#15,.T.);
#198=EDGE_CURVE('',#161,#162,#93,.T.);
#199=EDGE_CURVE('',#162,#162,#16,.T.);
#200=EDGE_CURVE('',#163,#163,#17,.T.);
#201=EDGE_CURVE('',#163,#164,#94,.T.);
#202=EDGE_CURVE('',#164,#164,#18,.T.);
#203=EDGE_CURVE('',#165,#166,#95,.T.);
#204=EDGE_CURVE('',#165,#167,#96,.T.);
#205=EDGE_CURVE('',#168,#167,#97,.T.);
#206=EDGE_CURVE('',#166,#168,#98,.T.);
#207=EDGE_CURVE('',#166,#158,#99,.T.);
#208=EDGE_CURVE('',#146,#168,#100,.T.);
#209=EDGE_CURVE('',#157,#165,#101,.T.);
#210=EDGE_CURVE('',#167,#145,#102,.T.);
#211=ORIENTED_EDGE('',*,*,#169,.F.);
#212=ORIENTED_EDGE('',*,*,#170,.T.);
#213=ORIENTED_EDGE('',*,*,#171,.F.);
#214=ORIENTED_EDGE('',*,*,#172,.F.);
#215=ORIENTED_EDGE('',*,*,#173,.F.);
#216=ORIENTED_EDGE('',*,*,#174,.T.);
#217=ORIENTED_EDGE('',*,*,#175,.F.);
#218=ORIENTED_EDGE('',*,*,#176,.F.);
#219=ORIENTED_EDGE('',*,*,#171,.T.);
#220=ORIENTED_EDGE('',*,*,#177,.T.);
#221=ORIENTED_EDGE('',*,*,#175,.T.);
#222=ORIENTED_EDGE('',*,*,#178,.T.);
#223=ORIENTED_EDGE('',*,*,#179,.T.);
#224=ORIENTED_EDGE('',*,*,#180,.T.);
#225=ORIENTED_EDGE('',*,*,#181,.F.);
#226=ORIENTED_EDGE('',*,*,#182,.F.);
#227=ORIENTED_EDGE('',*,*,#183,.T.);
#228=ORIENTED_EDGE('',*,*,#182,.T.);
#229=ORIENTED_EDGE('',*,*,#184,.F.);
#230=ORIENTED_EDGE('',*,*,#185,.F.);
#231=ORIENTED_EDGE('',*,*,#186,.T.);
#232=ORIENTED_EDGE('',*,*,#185,.T.);
#233=ORIENTED_EDGE('',*,*,#187,.F.);
#234=ORIENTED_EDGE('',*,*,#188,.F.);
#235=ORIENTED_EDGE('',*,*,#189,.T.);
#236=ORIENTED_EDGE('',*,*,#188,.T.);
#237=ORIENTED_EDGE('',*,*,#190,.F.);
#238=ORIENTED_EDGE('',*,*,#180,.F.);
#239=ORIENTED_EDGE('',*,*,#191,.T.);
#240=ORIENTED_EDGE('',*,*,#192,.T.);
#241=ORIENTED_EDGE('',*,*,#193,.F.);
#242=ORIENTED_EDGE('',*,*,#194,.F.);
#243=ORIENTED_EDGE('',*,*,#193,.T.);
#244=ORIENTED_EDGE('',*,*,#195,.T.);
#245=ORIENTED_EDGE('',*,*,#169,.T.);
#246=ORIENTED_EDGE('',*,*,#196,.T.);
#247=ORIENTED_EDGE('',*,*,#190,.T.);
#248=ORIENTED_EDGE('',*,*,#187,.T.);
#249=ORIENTED_EDGE('',*,*,#184,.T.);
#250=ORIENTED_EDGE('',*,*,#181,.T.);
#251=ORIENTED_EDGE('',*,*,#197,.F.);
#252=ORIENTED_EDGE('',*,*,#198,.T.);
#253=ORIENTED_EDGE('',*,*,#199,.T.);
#254=ORIENTED_EDGE('',*,*,#198,.F.);
#255=ORIENTED_EDGE('',*,*,#200,.F.);
#256=ORIENTED_EDGE('',*,*,#201,.T.);
#257=ORIENTED_EDGE('',*,*,#202,.T.);
#258=ORIENTED_EDGE('',*,*,#201,.F.);
#259=ORIENTED_EDGE('',*,*,#203,.F.);
#260=ORIENTED_EDGE('',*,*,#204,.T.);
#261=ORIENTED_EDGE('',*,*,#205,.F.);
#262=ORIENTED_EDGE('',*,*,#206,.F.);
#263=ORIENTED_EDGE('',*,*,#207,.F.);
#264=ORIENTED_EDGE('',*,*,#206,.T.);
#265=ORIENTED_EDGE('',*,*,#208,.F.);
#266=ORIENTED_EDGE('',*,*,#176,.T.);
#267=ORIENTED_EDGE('',*,*,#177,.F.);
#268=ORIENTED_EDGE('',*,*,#170,.F.);
#269=ORIENTED_EDGE('',*,*,#195,.F.);
#270=ORIENTED_EDGE('',*,*,#192,.F.);
#271=ORIENTED_EDGE('',*,*,#209,.F.);
#272=ORIENTED_EDGE('',*,*,#194,.T.);
#273=ORIENTED_EDGE('',*,*,#196,.F.);
#274=ORIENTED_EDGE('',*,*,#172,.T.);
#275=ORIENTED_EDGE('',*,*,#178,.F.);
#276=ORIENTED_EDGE('',*,*,#174,.F.);
#277=ORIENTED_EDGE('',*,*,#210,.F.);
#278=ORIENTED_EDGE('',*,*,#204,.F.);
#279=ORIENTED_EDGE('',*,*,#210,.T.);
#280=ORIENTED_EDGE('',*,*,#173,.T.);
#281=ORIENTED_EDGE('',*,*,#208,.T.);
#282=ORIENTED_EDGE('',*,*,#205,.T.);
#283=ORIENTED_EDGE('',*,*,#200,.T.);
#284=ORIENTED_EDGE('',*,*,#197,.T.);
#285=ORIENTED_EDGE('',*,*,#209,.T.);
#286=ORIENTED_EDGE('',*,*,#203,.T.);
#287=ORIENTED_EDGE('',*,*,#207,.T.);
#288=ORIENTED_EDGE('',*,*,#191,.F.);
#289=ORIENTED_EDGE('',*,*,#189,.F.);
#290=ORIENTED_EDGE('',*,*,#179,.F.);
#291=ORIENTED_EDGE('',*,*,#183,.F.);
#292=ORIENTED_EDGE('',*,*,#186,.F.);
#293=ORIENTED_EDGE('',*,*,#202,.F.);
#294=ORIENTED_EDGE('',*,*,#199,.F.);
#295=PLANE('',#339);
#296=PLANE('',#340);
#297=PLANE('',#341);
#298=PLANE('',#342);
#299=PLANE('',#343);
#300=PLANE('',#344);
#301=PLANE('',#345);
#302=PLANE('',#346);
#303=PLANE('',#347);
#304=PLANE('',#354);
#305=PLANE('',#355);
#306=PLANE('',#356);
#307=PLANE('',#357);
#308=PLANE('',#358);
#309=ADVANCED_FACE('',(#27),#295,.T.);
#310=ADVANCED_FACE('',(#28),#296,.T.);
#311=ADVANCED_FACE('',(#29),#297,.T.);
#312=ADVANCED_FACE('',(#30),#298,.T.);
#313=ADVANCED_FACE('',(#31),#299,.T.);
#314=ADVANCED_FACE('',(#32),#300,.T.);
#315=ADVANCED_FACE('',(#33),#301,.T.);
#316=ADVANCED_FACE('',(#34),#302,.T.);
#317=ADVANCED_FACE('',(#35,#21),#303,.T.);
#318=ADVANCED_FACE('',(#36),#19,.F.);
#319=ADVANCED_FACE('',(#37),#20,.F.);
#320=ADVANCED_FACE('',(#38),#304,.T.);
#321=ADVANCED_FACE('',(#39),#305,.T.);
#322=ADVANCED_FACE('',(#40),#306,.T.);
#323=ADVANCED_FACE('',(#41,#22,#23),#307,.T.);
#324=ADVANCED_FACE('',(#42,#24,#25,#26),#308,.F.);
#325=CLOSED_SHELL('',(#309,#310,#311,#312,#313,#314,#315,#316,#317,#318,
#319,#320,#321,#322,#323,#324));
#326=DERIVED_UNIT_ELEMENT(#328,1.);
#327=DERIVED_UNIT_ELEMENT(#531,-3.);
#328=(
MASS_UNIT()
NAMED_UNIT(*)
SI_UNIT(.KILO.,.GRAM.)
);
#329=DERIVED_UNIT((#326,#327));
#330=MEASURE_REPRESENTATION_ITEM('density measure',
POSITIVE_RATIO_MEASURE(7850.),#329);
#331=PROPERTY_DEFINITION_REPRESENTATION(#336,#333);
#332=PROPERTY_DEFINITION_REPRESENTATION(#337,#334);
#333=REPRESENTATION('material name',(#335),#528);
#334=REPRESENTATION('density',(#330),#528);
#335=DESCRIPTIVE_REPRESENTATION_ITEM('Steel','Steel');
#336=PROPERTY_DEFINITION('material property','material name',#538);
#337=PROPERTY_DEFINITION('material property','density of part',#538);
#338=AXIS2_PLACEMENT_3D('',#439,#359,#360);
#339=AXIS2_PLACEMENT_3D('',#440,#361,#362);
#340=AXIS2_PLACEMENT_3D('',#449,#367,#368);
#341=AXIS2_PLACEMENT_3D('',#458,#373,#374);
#342=AXIS2_PLACEMENT_3D('',#461,#377,#378);
#343=AXIS2_PLACEMENT_3D('',#470,#383,#384);
#344=AXIS2_PLACEMENT_3D('',#476,#388,#389);
#345=AXIS2_PLACEMENT_3D('',#482,#393,#394);
#346=AXIS2_PLACEMENT_3D('',#485,#397,#398);
#347=AXIS2_PLACEMENT_3D('',#494,#403,#404);
#348=AXIS2_PLACEMENT_3D('',#497,#407,#408);
#349=AXIS2_PLACEMENT_3D('',#499,#409,#410);
#350=AXIS2_PLACEMENT_3D('',#502,#412,#413);
#351=AXIS2_PLACEMENT_3D('',#503,#414,#415);
#352=AXIS2_PLACEMENT_3D('',#505,#416,#417);
#353=AXIS2_PLACEMENT_3D('',#508,#419,#420);
#354=AXIS2_PLACEMENT_3D('',#509,#421,#422);
#355=AXIS2_PLACEMENT_3D('',#518,#427,#428);
#356=AXIS2_PLACEMENT_3D('',#521,#431,#432);
#357=AXIS2_PLACEMENT_3D('',#524,#435,#436);
#358=AXIS2_PLACEMENT_3D('',#525,#437,#438);
#359=DIRECTION('axis',(0.,0.,1.));
#360=DIRECTION('refdir',(1.,0.,0.));
#361=DIRECTION('center_axis',(0.,-1.,0.));
#362=DIRECTION('ref_axis',(1.,0.,0.));
#363=DIRECTION('',(-1.,0.,0.));
#364=DIRECTION('',(0.,0.,1.));
#365=DIRECTION('',(1.,0.,0.));
#366=DIRECTION('',(0.,0.,1.));
#367=DIRECTION('center_axis',(0.,1.,0.));
#368=DIRECTION('ref_axis',(-1.,0.,0.));
#369=DIRECTION('',(1.,0.,0.));
#370=DIRECTION('',(0.,0.,1.));
#371=DIRECTION('',(-1.,0.,0.));
#372=DIRECTION('',(0.,0.,1.));
#373=DIRECTION('center_axis',(0.,0.,1.));
#374=DIRECTION('ref_axis',(1.,0.,0.));
#375=DIRECTION('',(0.,1.,0.));
#376=DIRECTION('',(0.,-1.,0.));
#377=DIRECTION('center_axis',(0.,-1.,0.));
#378=DIRECTION('ref_axis',(1.,0.,0.));
#379=DIRECTION('',(1.,0.,0.));
#380=DIRECTION('',(0.,0.,1.));
#381=DIRECTION('',(1.,0.,0.));
#382=DIRECTION('',(0.,0.,1.));
#383=DIRECTION('center_axis',(1.,0.,0.));
#384=DIRECTION('ref_axis',(0.,1.,0.));
#385=DIRECTION('',(0.,1.,0.));
#386=DIRECTION('',(0.,1.,0.));
#387=DIRECTION('',(0.,0.,1.));
#388=DIRECTION('center_axis',(0.,1.,0.));
#389=DIRECTION('ref_axis',(-1.,0.,0.));
#390=DIRECTION('',(-1.,0.,0.));
#391=DIRECTION('',(-1.,0.,0.));
#392=DIRECTION('',(0.,0.,1.));
#393=DIRECTION('center_axis',(-1.,0.,0.));
#394=DIRECTION('ref_axis',(0.,-1.,0.));
#395=DIRECTION('',(0.,-1.,0.));
#396=DIRECTION('',(0.,-1.,0.));
#397=DIRECTION('center_axis',(0.,-1.,0.));
#398=DIRECTION('ref_axis',(1.,0.,0.));
#399=DIRECTION('',(1.,0.,0.));
#400=DIRECTION('',(0.,0.,1.));
#401=DIRECTION('',(1.,0.,0.));
#402=DIRECTION('',(0.,0.,1.));
#403=DIRECTION('center_axis',(0.,0.,1.));
#404=DIRECTION('ref_axis',(1.,0.,0.));
#405=DIRECTION('',(0.,1.,0.));
#406=DIRECTION('',(0.,-1.,0.));
#407=DIRECTION('center_axis',(0.,0.,1.));
#408=DIRECTION('ref_axis',(1.,0.,0.));
#409=DIRECTION('center_axis',(0.,0.,-1.));
#410=DIRECTION('ref_axis',(1.,0.,0.));
#411=DIRECTION('',(0.,0.,-1.));
#412=DIRECTION('center_axis',(0.,0.,-1.));
#413=DIRECTION('ref_axis',(1.,0.,0.));
#414=DIRECTION('center_axis',(0.,0.,1.));
#415=DIRECTION('ref_axis',(1.,0.,0.));
#416=DIRECTION('center_axis',(0.,0.,-1.));
#417=DIRECTION('ref_axis',(1.,0.,0.));
#418=DIRECTION('',(0.,0.,-1.));
#419=DIRECTION('center_axis',(0.,0.,-1.));
#420=DIRECTION('ref_axis',(1.,0.,0.));
#421=DIRECTION('center_axis',(0.,1.,0.));
#422=DIRECTION('ref_axis',(-1.,0.,0.));
#423=DIRECTION('',(1.,0.,0.));
#424=DIRECTION('',(0.,0.,1.));
#425=DIRECTION('',(-1.,0.,0.));
#426=DIRECTION('',(0.,0.,1.));
#427=DIRECTION('center_axis',(1.,0.,0.));
#428=DIRECTION('ref_axis',(0.,1.,0.));
#429=DIRECTION('',(0.,-1.,0.));
#430=DIRECTION('',(0.,1.,0.));
#431=DIRECTION('center_axis',(-1.,0.,0.));
#432=DIRECTION('ref_axis',(0.,-1.,0.));
#433=DIRECTION('',(0.,1.,0.));
#434=DIRECTION('',(0.,-1.,0.));
#435=DIRECTION('center_axis',(0.,0.,1.));
#436=DIRECTION('ref_axis',(1.,0.,0.));
#437=DIRECTION('center_axis',(0.,0.,1.));
#438=DIRECTION('ref_axis',(1.,0.,0.));
#439=CARTESIAN_POINT('',(0.,0.,0.));
#440=CARTESIAN_POINT('Origin',(-16.0951383870803,23.8313954867172,0.));
#441=CARTESIAN_POINT('',(15.9048616129197,23.8313954867172,1.2));
#442=CARTESIAN_POINT('',(-16.0951383870803,23.8313954867172,1.2));
#443=CARTESIAN_POINT('',(15.9048616129197,23.8313954867172,1.2));
#444=CARTESIAN_POINT('',(15.9048616129197,23.8313954867172,3.7));
#445=CARTESIAN_POINT('',(15.9048616129197,23.8313954867172,0.));
#446=CARTESIAN_POINT('',(-16.0951383870803,23.8313954867172,3.7));
#447=CARTESIAN_POINT('',(15.9048616129197,23.8313954867172,3.7));
#448=CARTESIAN_POINT('',(-16.0951383870803,23.8313954867172,0.));
#449=CARTESIAN_POINT('Origin',(15.9048616129197,57.5513954867172,0.));
#450=CARTESIAN_POINT('',(-16.0951383870803,57.5513954867172,1.2));
#451=CARTESIAN_POINT('',(15.9048616129197,57.5513954867172,1.2));
#452=CARTESIAN_POINT('',(-16.0951383870803,57.5513954867172,1.2));
#453=CARTESIAN_POINT('',(-16.0951383870803,57.5513954867172,3.7));
#454=CARTESIAN_POINT('',(-16.0951383870803,57.5513954867172,0.));
#455=CARTESIAN_POINT('',(15.9048616129197,57.5513954867172,3.7));
#456=CARTESIAN_POINT('',(-16.0951383870803,57.5513954867172,3.7));
#457=CARTESIAN_POINT('',(15.9048616129197,57.5513954867172,0.));
#458=CARTESIAN_POINT('Origin',(-0.0951383870803046,40.6913954867172,3.7));
#459=CARTESIAN_POINT('',(15.9048616129197,57.5513954867172,3.7));
#460=CARTESIAN_POINT('',(-16.0951383870803,23.8313954867172,3.7));
#461=CARTESIAN_POINT('Origin',(-10.2551383870803,21.6013954867172,0.));
#462=CARTESIAN_POINT('',(-10.2551383870803,21.6013954867172,0.));
#463=CARTESIAN_POINT('',(10.0648616129197,21.6013954867172,0.));
#464=CARTESIAN_POINT('',(10.0648616129197,21.6013954867172,0.));
#465=CARTESIAN_POINT('',(10.0648616129197,21.6013954867172,1.2));
#466=CARTESIAN_POINT('',(10.0648616129197,21.6013954867172,0.));
#467=CARTESIAN_POINT('',(-10.2551383870803,21.6013954867172,1.2));
#468=CARTESIAN_POINT('',(10.0648616129197,21.6013954867172,1.2));
#469=CARTESIAN_POINT('',(-10.2551383870803,21.6013954867172,0.));
#470=CARTESIAN_POINT('Origin',(-10.2551383870803,19.0613954867172,0.));
#471=CARTESIAN_POINT('',(-10.2551383870803,19.0613954867172,0.));
#472=CARTESIAN_POINT('',(-10.2551383870803,21.6013954867172,0.));
#473=CARTESIAN_POINT('',(-10.2551383870803,19.0613954867172,1.2));
#474=CARTESIAN_POINT('',(-10.2551383870803,21.6013954867172,1.2));
#475=CARTESIAN_POINT('',(-10.2551383870803,19.0613954867172,0.));
#476=CARTESIAN_POINT('Origin',(10.0648616129197,19.0613954867172,0.));
#477=CARTESIAN_POINT('',(10.0648616129197,19.0613954867172,0.));
#478=CARTESIAN_POINT('',(-10.2551383870803,19.0613954867172,0.));
#479=CARTESIAN_POINT('',(10.0648616129197,19.0613954867172,1.2));
#480=CARTESIAN_POINT('',(-10.2551383870803,19.0613954867172,1.2));
#481=CARTESIAN_POINT('',(10.0648616129197,19.0613954867172,0.));
#482=CARTESIAN_POINT('Origin',(10.0648616129197,21.6013954867172,0.));
#483=CARTESIAN_POINT('',(10.0648616129197,19.0613954867172,0.));
#484=CARTESIAN_POINT('',(10.0648616129197,19.0613954867172,1.2));
#485=CARTESIAN_POINT('Origin',(-16.0951383870803,18.8313954867172,0.));
#486=CARTESIAN_POINT('',(-16.0951383870803,18.8313954867172,0.));
#487=CARTESIAN_POINT('',(15.9048616129197,18.8313954867172,0.));
#488=CARTESIAN_POINT('',(-16.0951383870803,18.8313954867172,0.));
#489=CARTESIAN_POINT('',(15.9048616129197,18.8313954867172,1.2));
#490=CARTESIAN_POINT('',(15.9048616129197,18.8313954867172,0.));
#491=CARTESIAN_POINT('',(-16.0951383870803,18.8313954867172,1.2));
#492=CARTESIAN_POINT('',(-16.0951383870803,18.8313954867172,1.2));
#493=CARTESIAN_POINT('',(-16.0951383870803,18.8313954867172,0.));
#494=CARTESIAN_POINT('Origin',(-0.0951383870803046,21.3313954867172,1.2));
#495=CARTESIAN_POINT('',(15.9048616129197,62.5313954867172,1.2));
#496=CARTESIAN_POINT('',(-16.0951383870803,18.8313954867172,1.2));
#497=CARTESIAN_POINT('Origin',(-13.5951383870803,60.0313954867172,0.));
#498=CARTESIAN_POINT('',(-14.5951383870803,60.0313954867172,1.2));
#499=CARTESIAN_POINT('Origin',(-13.5951383870803,60.0313954867172,1.2));
#500=CARTESIAN_POINT('',(-14.5951383870803,60.0313954867172,0.));
#501=CARTESIAN_POINT('',(-14.5951383870803,60.0313954867172,0.));
#502=CARTESIAN_POINT('Origin',(-13.5951383870803,60.0313954867172,0.));
#503=CARTESIAN_POINT('Origin',(13.4048616129197,60.0313954867172,0.));
#504=CARTESIAN_POINT('',(12.4048616129197,60.0313954867172,1.2));
#505=CARTESIAN_POINT('Origin',(13.4048616129197,60.0313954867172,1.2));
#506=CARTESIAN_POINT('',(12.4048616129197,60.0313954867172,0.));
#507=CARTESIAN_POINT('',(12.4048616129197,60.0313954867172,0.));
#508=CARTESIAN_POINT('Origin',(13.4048616129197,60.0313954867172,0.));
#509=CARTESIAN_POINT('Origin',(15.9048616129197,62.5313954867172,0.));
#510=CARTESIAN_POINT('',(-16.0951383870803,62.5313954867172,0.));
#511=CARTESIAN_POINT('',(15.9048616129197,62.5313954867172,0.));
#512=CARTESIAN_POINT('',(-16.0951383870803,62.5313954867172,0.));
#513=CARTESIAN_POINT('',(-16.0951383870803,62.5313954867172,1.2));
#514=CARTESIAN_POINT('',(-16.0951383870803,62.5313954867172,0.));
#515=CARTESIAN_POINT('',(15.9048616129197,62.5313954867172,1.2));
#516=CARTESIAN_POINT('',(-16.0951383870803,62.5313954867172,1.2));
#517=CARTESIAN_POINT('',(15.9048616129197,62.5313954867172,0.));
#518=CARTESIAN_POINT('Origin',(15.9048616129197,57.5513954867172,0.));
#519=CARTESIAN_POINT('',(15.9048616129197,62.5313954867172,0.));
#520=CARTESIAN_POINT('',(15.9048616129197,62.5313954867172,1.2));
#521=CARTESIAN_POINT('Origin',(-16.0951383870803,62.5313954867172,0.));
#522=CARTESIAN_POINT('',(-16.0951383870803,18.8313954867172,0.));
#523=CARTESIAN_POINT('',(-16.0951383870803,18.8313954867172,1.2));
#524=CARTESIAN_POINT('Origin',(-0.0951383870803024,60.0413954867172,1.2));
#525=CARTESIAN_POINT('Origin',(-0.0951383870803024,60.0413954867172,0.));
#526=UNCERTAINTY_MEASURE_WITH_UNIT(LENGTH_MEASURE(0.01),#530,
'DISTANCE_ACCURACY_VALUE',
'Maximum model space distance between geometric entities at asserted c
onnectivities');
#527=UNCERTAINTY_MEASURE_WITH_UNIT(LENGTH_MEASURE(0.01),#530,
'DISTANCE_ACCURACY_VALUE',
'Maximum model space distance between geometric entities at asserted c
onnectivities');
#528=(
GEOMETRIC_REPRESENTATION_CONTEXT(3)
GLOBAL_UNCERTAINTY_ASSIGNED_CONTEXT((#526))
GLOBAL_UNIT_ASSIGNED_CONTEXT((#530,#532,#533))
REPRESENTATION_CONTEXT('','3D')
);
#529=(
GEOMETRIC_REPRESENTATION_CONTEXT(3)
GLOBAL_UNCERTAINTY_ASSIGNED_CONTEXT((#527))
GLOBAL_UNIT_ASSIGNED_CONTEXT((#530,#532,#533))
REPRESENTATION_CONTEXT('','3D')
);
#530=(
LENGTH_UNIT()
NAMED_UNIT(*)
SI_UNIT(.MILLI.,.METRE.)
);
#531=(
LENGTH_UNIT()
NAMED_UNIT(*)
SI_UNIT($,.METRE.)
);
#532=(
NAMED_UNIT(*)
PLANE_ANGLE_UNIT()
SI_UNIT($,.RADIAN.)
);
#533=(
NAMED_UNIT(*)
SI_UNIT($,.STERADIAN.)
SOLID_ANGLE_UNIT()
);
#534=SHAPE_DEFINITION_REPRESENTATION(#535,#536);
#535=PRODUCT_DEFINITION_SHAPE('',$,#538);
#536=SHAPE_REPRESENTATION('',(#338),#528);
#537=PRODUCT_DEFINITION_CONTEXT('part definition',#542,'design');
#538=PRODUCT_DEFINITION('1.54" ST7789 Display',
'1.54" ST7789 Display v1',#539,#537);
#539=PRODUCT_DEFINITION_FORMATION('',$,#544);
#540=PRODUCT_RELATED_PRODUCT_CATEGORY('1.54" ST7789 Display v1',
'1.54" ST7789 Display v1',(#544));
#541=APPLICATION_PROTOCOL_DEFINITION('international standard',
'automotive_design',2009,#542);
#542=APPLICATION_CONTEXT(
'Core Data for Automotive Mechanical Design Process');
#543=PRODUCT_CONTEXT('part definition',#542,'mechanical');
#544=PRODUCT('1.54" ST7789 Display','1.54" ST7789 Display v1',$,(#543));
#545=PRESENTATION_STYLE_ASSIGNMENT((#546));
#546=SURFACE_STYLE_USAGE(.BOTH.,#547);
#547=SURFACE_SIDE_STYLE('',(#548));
#548=SURFACE_STYLE_FILL_AREA(#549);
#549=FILL_AREA_STYLE('Steel - Satin',(#550));
#550=FILL_AREA_STYLE_COLOUR('Steel - Satin',#551);
#551=COLOUR_RGB('Steel - Satin',0.627450980392157,0.627450980392157,0.627450980392157);
ENDSEC;
END-ISO-10303-21;
