M48
; DRILL file KiCad 10.0.2 date 2026-05-14T21:02:54
; FORMAT={-:-/ absolute / inch / decimal}
; #@! TF.CreationDate,2026-05-14T21:02:54+08:00
; #@! TF.GenerationSoftware,Kicad,Pcbnew,10.0.2
; #@! TF.FileFunction,Plated,1,2,PTH
FMAT,2
INCH
; #@! TA.AperFunction,Plated,PTH,ComponentDrill
T1C0.0079
; #@! TA.AperFunction,Plated,PTH,ViaDrill
T2C0.0118
; #@! TA.AperFunction,Plated,PTH,ComponentDrill
T3C0.0236
; #@! TA.AperFunction,Plated,PTH,ComponentDrill
T4C0.0394
; #@! TA.AperFunction,Plated,PTH,ComponentDrill
T5C0.0433
%
G90
G05
T1
X2.7008Y-2.1299
X2.7008Y-2.1772
X2.7008Y-2.2244
X2.7559Y-2.1299
X2.7559Y-2.1772
X2.7559Y-2.2244
T2
X2.5591Y-2.185
X2.6772Y-2.0669
X2.7362Y-1.2205
X2.8346Y-1.2992
X2.8543Y-1.9685
X2.9134Y-2.0866
X2.9528Y-1.0039
X3.0512Y-1.1409
X3.1693Y-2.3622
X3.189Y-1.3976
X3.2283Y-1.1614
X3.2283Y-2.1654
X3.2456Y-2.3102
X3.2704Y-0.8634
X3.3268Y-2.3622
X3.3492Y-1.1614
X3.4055Y-1.2205
X3.4055Y-2.1654
X3.4449Y-2.0866
X3.4453Y-2.126
X3.4843Y-1.378
X3.4843Y-2.126
X3.5002Y-1.158
X3.5413Y-1.0993
X3.5433Y-1.2697
X3.5433Y-1.3189
X3.5503Y-1.1931
X3.563Y-1.4173
X3.5827Y-0.8465
X3.5856Y-1.2273
X3.6024Y-0.9921
X3.6054Y-1.1244
X3.6227Y-1.2626
X3.6816Y-1.1282
X3.6818Y-1.2953
X3.7206Y-0.9863
X3.7229Y-1.1822
X3.773Y-1.2667
X3.7734Y-0.9824
X3.7795Y-0.8917
X3.8108Y-1.1847
X3.8383Y-0.9867
X3.8719Y-1.1816
X3.8809Y-1.1514
X3.919Y-0.915
X3.9253Y-0.8642
X3.937Y-1.3976
X3.946Y-0.9425
X3.9527Y-1.2146
X3.9546Y-1.1636
X3.9719Y-1.0791
X4.0012Y-1.2657
X4.0157Y-1.3189
X4.1772Y-0.9843
X4.2205Y-1.9488
T4
X3.022Y-0.7874
X3.122Y-0.7874
X3.222Y-0.7874
X3.322Y-0.7874
X3.422Y-0.7874
X3.522Y-0.7874
X3.622Y-0.7874
X3.722Y-0.7874
T5
X2.5591Y-1.5551
X2.5591Y-1.7323
X2.815Y-1.5551
X2.815Y-1.7323
X2.9331Y-1.2894
X2.9331Y-1.4665
X2.9331Y-1.8307
X2.9331Y-2.0079
X3.189Y-1.2894
X3.189Y-1.4665
X3.189Y-1.8307
X3.189Y-2.0079
X3.3071Y-1.5551
X3.3071Y-1.7323
X3.563Y-1.5551
X3.563Y-1.7323
X3.7992Y-1.8307
X3.7992Y-2.0079
X3.878Y-1.5059
X3.878Y-1.6831
X4.0551Y-1.8307
X4.0551Y-2.0079
X4.1339Y-1.5059
X4.1339Y-1.6831
T3
G00X3.2004Y-2.235
M15
G01X3.2004Y-2.2783
M16
G05
G00X3.2004Y-2.4094
M15
G01X3.2004Y-2.4331
M16
G05
G00X3.5406Y-2.235
M15
G01X3.5406Y-2.2783
M16
G05
G00X3.5406Y-2.4094
M15
G01X3.5406Y-2.4331
M16
G05
M30
