%TF.GenerationSoftware,KiCad,Pcbnew,10.0.2*%
%TF.CreationDate,2026-05-31T12:38:37+08:00*%
%TF.ProjectId,mini-games,6d696e69-2d67-4616-9d65-732e6b696361,rev?*%
%TF.SameCoordinates,Original*%
%TF.FileFunction,Soldermask,Top*%
%TF.FilePolarity,Negative*%
%FSLAX46Y46*%
G04 Gerber Fmt 4.6, Leading zero omitted, Abs format (unit mm)*
G04 Created by KiCad (PCBNEW 10.0.2) date 2026-05-31 12:38:37*
%MOMM*%
%LPD*%
G01*
G04 APERTURE LIST*
G04 Aperture macros list*
%AMRoundRect*
0 Rectangle with rounded corners*
0 $1 Rounding radius*
0 $2 $3 $4 $5 $6 $7 $8 $9 X,Y pos of 4 corners*
0 Add a 4 corners polygon primitive as box body*
4,1,4,$2,$3,$4,$5,$6,$7,$8,$9,$2,$3,0*
0 Add four circle primitives for the rounded corners*
1,1,$1+$1,$2,$3*
1,1,$1+$1,$4,$5*
1,1,$1+$1,$6,$7*
1,1,$1+$1,$8,$9*
0 Add four rect primitives between the rounded corners*
20,1,$1+$1,$2,$3,$4,$5,0*
20,1,$1+$1,$4,$5,$6,$7,0*
20,1,$1+$1,$6,$7,$8,$9,0*
20,1,$1+$1,$8,$9,$2,$3,0*%
G04 Aperture macros list end*
%ADD10RoundRect,0.140000X-0.140000X-0.170000X0.140000X-0.170000X0.140000X0.170000X-0.140000X0.170000X0*%
%ADD11RoundRect,0.135000X0.135000X0.185000X-0.135000X0.185000X-0.135000X-0.185000X0.135000X-0.185000X0*%
%ADD12RoundRect,0.140000X0.170000X-0.140000X0.170000X0.140000X-0.170000X0.140000X-0.170000X-0.140000X0*%
%ADD13RoundRect,0.218750X-0.218750X-0.256250X0.218750X-0.256250X0.218750X0.256250X-0.218750X0.256250X0*%
%ADD14C,2.000000*%
%ADD15RoundRect,0.150000X0.150000X0.500000X-0.150000X0.500000X-0.150000X-0.500000X0.150000X-0.500000X0*%
%ADD16RoundRect,0.175000X0.350000X0.175000X-0.350000X0.175000X-0.350000X-0.175000X0.350000X-0.175000X0*%
%ADD17RoundRect,0.140000X0.140000X0.170000X-0.140000X0.170000X-0.140000X-0.170000X0.140000X-0.170000X0*%
%ADD18RoundRect,0.200000X-0.200000X-0.800000X0.200000X-0.800000X0.200000X0.800000X-0.200000X0.800000X0*%
%ADD19RoundRect,0.135000X-0.185000X0.135000X-0.185000X-0.135000X0.185000X-0.135000X0.185000X0.135000X0*%
%ADD20RoundRect,0.135000X-0.135000X-0.185000X0.135000X-0.185000X0.135000X0.185000X-0.135000X0.185000X0*%
%ADD21RoundRect,0.225000X0.225000X0.375000X-0.225000X0.375000X-0.225000X-0.375000X0.225000X-0.375000X0*%
%ADD22RoundRect,0.150000X0.512500X0.150000X-0.512500X0.150000X-0.512500X-0.150000X0.512500X-0.150000X0*%
%ADD23RoundRect,0.050000X-0.387500X-0.050000X0.387500X-0.050000X0.387500X0.050000X-0.387500X0.050000X0*%
%ADD24RoundRect,0.050000X-0.050000X-0.387500X0.050000X-0.387500X0.050000X0.387500X-0.050000X0.387500X0*%
%ADD25R,3.200000X3.200000*%
%ADD26RoundRect,0.150000X-0.150000X-0.575000X0.150000X-0.575000X0.150000X0.575000X-0.150000X0.575000X0*%
%ADD27RoundRect,0.075000X-0.075000X-0.650000X0.075000X-0.650000X0.075000X0.650000X-0.075000X0.650000X0*%
%ADD28O,1.000000X2.100000*%
%ADD29O,1.000000X1.600000*%
%ADD30RoundRect,0.225000X-0.225000X-0.375000X0.225000X-0.375000X0.225000X0.375000X-0.225000X0.375000X0*%
%ADD31RoundRect,0.150000X-0.825000X-0.150000X0.825000X-0.150000X0.825000X0.150000X-0.825000X0.150000X0*%
%ADD32R,2.410000X3.300000*%
%ADD33RoundRect,0.162500X-0.162500X0.650000X-0.162500X-0.650000X0.162500X-0.650000X0.162500X0.650000X0*%
%ADD34R,2.000000X2.000000*%
%ADD35RoundRect,0.250000X-0.450000X-0.350000X0.450000X-0.350000X0.450000X0.350000X-0.450000X0.350000X0*%
%ADD36RoundRect,0.135000X0.185000X-0.135000X0.185000X0.135000X-0.185000X0.135000X-0.185000X-0.135000X0*%
%ADD37R,1.700000X1.700000*%
%ADD38C,1.700000*%
G04 APERTURE END LIST*
D10*
%TO.C,C12*%
X103540000Y-33500000D03*
X104500000Y-33500000D03*
%TD*%
D11*
%TO.C,R11*%
X74510000Y-54500000D03*
X73490000Y-54500000D03*
%TD*%
D12*
%TO.C,C9*%
X84000000Y-25980000D03*
X84000000Y-25020000D03*
%TD*%
D10*
%TO.C,C13*%
X99170000Y-59500000D03*
X100130000Y-59500000D03*
%TD*%
%TO.C,C11*%
X103540000Y-34500000D03*
X104500000Y-34500000D03*
%TD*%
D13*
%TO.C,D2*%
X76425000Y-56000000D03*
X78000000Y-56000000D03*
%TD*%
D14*
%TO.C,SW5*%
X74500000Y-46500000D03*
X81000000Y-46500000D03*
X74500000Y-51000000D03*
X81000000Y-51000000D03*
%TD*%
%TO.C,SW3*%
X65000000Y-39500000D03*
X71500000Y-39500000D03*
X65000000Y-44000000D03*
X71500000Y-44000000D03*
%TD*%
D15*
%TO.C,SW12*%
X90750000Y-51450000D03*
X87750000Y-51450000D03*
X86250000Y-51450000D03*
D16*
X92175000Y-50600000D03*
X92175000Y-48400000D03*
X84825000Y-50600000D03*
X84825000Y-48400000D03*
%TD*%
D17*
%TO.C,C14*%
X106150000Y-57500000D03*
X105190000Y-57500000D03*
%TD*%
D18*
%TO.C,SW9*%
X101900000Y-25000000D03*
X106100000Y-25000000D03*
%TD*%
D19*
%TO.C,R1*%
X93150000Y-59990000D03*
X93150000Y-61010000D03*
%TD*%
D20*
%TO.C,R6*%
X64990000Y-31000000D03*
X66010000Y-31000000D03*
%TD*%
%TO.C,R8*%
X65490000Y-51500000D03*
X66510000Y-51500000D03*
%TD*%
D12*
%TO.C,C5*%
X80000000Y-26000000D03*
X80000000Y-25040000D03*
%TD*%
%TO.C,C3*%
X78000000Y-26000000D03*
X78000000Y-25040000D03*
%TD*%
D20*
%TO.C,R3*%
X84490000Y-54000000D03*
X85510000Y-54000000D03*
%TD*%
D18*
%TO.C,SW11*%
X71400000Y-28500000D03*
X75600000Y-28500000D03*
%TD*%
D12*
%TO.C,C8*%
X83000000Y-25980000D03*
X83000000Y-25020000D03*
%TD*%
D14*
%TO.C,SW2*%
X74500000Y-32750000D03*
X81000000Y-32750000D03*
X74500000Y-37250000D03*
X81000000Y-37250000D03*
%TD*%
%TO.C,SW4*%
X84000000Y-39500000D03*
X90500000Y-39500000D03*
X84000000Y-44000000D03*
X90500000Y-44000000D03*
%TD*%
D21*
%TO.C,D5*%
X71150000Y-50000000D03*
X67850000Y-50000000D03*
%TD*%
D18*
%TO.C,SW8*%
X101900000Y-29000000D03*
X106100000Y-29000000D03*
%TD*%
D22*
%TO.C,U5*%
X103150000Y-58400000D03*
X103150000Y-56500000D03*
X100875000Y-57450000D03*
%TD*%
D23*
%TO.C,U1*%
X92625000Y-24962500D03*
X92625000Y-25362500D03*
X92625000Y-25762500D03*
X92625000Y-26162500D03*
X92625000Y-26562500D03*
X92625000Y-26962500D03*
X92625000Y-27362500D03*
X92625000Y-27762500D03*
X92625000Y-28162500D03*
X92625000Y-28562500D03*
X92625000Y-28962500D03*
X92625000Y-29362500D03*
X92625000Y-29762500D03*
X92625000Y-30162500D03*
D24*
X93462500Y-31000000D03*
X93862500Y-31000000D03*
X94262500Y-31000000D03*
X94662500Y-31000000D03*
X95062500Y-31000000D03*
X95462500Y-31000000D03*
X95862500Y-31000000D03*
X96262500Y-31000000D03*
X96662500Y-31000000D03*
X97062500Y-31000000D03*
X97462500Y-31000000D03*
X97862500Y-31000000D03*
X98262500Y-31000000D03*
X98662500Y-31000000D03*
D23*
X99500000Y-30162500D03*
X99500000Y-29762500D03*
X99500000Y-29362500D03*
X99500000Y-28962500D03*
X99500000Y-28562500D03*
X99500000Y-28162500D03*
X99500000Y-27762500D03*
X99500000Y-27362500D03*
X99500000Y-26962500D03*
X99500000Y-26562500D03*
X99500000Y-26162500D03*
X99500000Y-25762500D03*
X99500000Y-25362500D03*
X99500000Y-24962500D03*
D24*
X98662500Y-24125000D03*
X98262500Y-24125000D03*
X97862500Y-24125000D03*
X97462500Y-24125000D03*
X97062500Y-24125000D03*
X96662500Y-24125000D03*
X96262500Y-24125000D03*
X95862500Y-24125000D03*
X95462500Y-24125000D03*
X95062500Y-24125000D03*
X94662500Y-24125000D03*
X94262500Y-24125000D03*
X93862500Y-24125000D03*
X93462500Y-24125000D03*
D25*
X96062500Y-27562500D03*
%TD*%
D26*
%TO.C,J1*%
X82360000Y-56405000D03*
X83160000Y-56405000D03*
D27*
X84360000Y-56405000D03*
X85360000Y-56405000D03*
X85860000Y-56405000D03*
X86860000Y-56405000D03*
D26*
X88060000Y-56405000D03*
X88860000Y-56405000D03*
X88860000Y-56405000D03*
X88060000Y-56405000D03*
D27*
X87360000Y-56405000D03*
X86360000Y-56405000D03*
X84860000Y-56405000D03*
X83860000Y-56405000D03*
D26*
X83160000Y-56405000D03*
X82360000Y-56405000D03*
D28*
X81290000Y-57320000D03*
D29*
X81290000Y-61500000D03*
D28*
X89930000Y-57320000D03*
D29*
X89930000Y-61500000D03*
%TD*%
D30*
%TO.C,D3*%
X94350000Y-58000000D03*
X97650000Y-58000000D03*
%TD*%
D31*
%TO.C,U4*%
X66825000Y-53395000D03*
X66825000Y-54665000D03*
X66825000Y-55935000D03*
X66825000Y-57205000D03*
X71775000Y-57205000D03*
X71775000Y-55935000D03*
X71775000Y-54665000D03*
X71775000Y-53395000D03*
D32*
X69300000Y-55300000D03*
%TD*%
D12*
%TO.C,C1*%
X76000000Y-26000000D03*
X76000000Y-25040000D03*
%TD*%
D14*
%TO.C,SW7*%
X96500000Y-46500000D03*
X103000000Y-46500000D03*
X96500000Y-51000000D03*
X103000000Y-51000000D03*
%TD*%
D12*
%TO.C,C17*%
X77500000Y-28980000D03*
X77500000Y-28020000D03*
%TD*%
D33*
%TO.C,U3*%
X88905000Y-29412500D03*
X87635000Y-29412500D03*
X86365000Y-29412500D03*
X85095000Y-29412500D03*
X85095000Y-36587500D03*
X86365000Y-36587500D03*
X87635000Y-36587500D03*
X88905000Y-36587500D03*
%TD*%
D18*
%TO.C,SW1*%
X65300000Y-28500000D03*
X69500000Y-28500000D03*
%TD*%
D34*
%TO.C,J4*%
X66500000Y-24500000D03*
%TD*%
D35*
%TO.C,Y1*%
X94800000Y-35500000D03*
X97000000Y-35500000D03*
X97000000Y-33800000D03*
X94800000Y-33800000D03*
%TD*%
D12*
%TO.C,C2*%
X77000000Y-26000000D03*
X77000000Y-25040000D03*
%TD*%
D34*
%TO.C,J3*%
X71000000Y-24500000D03*
%TD*%
D13*
%TO.C,D1*%
X76425000Y-54500000D03*
X78000000Y-54500000D03*
%TD*%
D17*
%TO.C,C16*%
X94480000Y-40000000D03*
X93520000Y-40000000D03*
%TD*%
D12*
%TO.C,C15*%
X99000000Y-34280000D03*
X99000000Y-33320000D03*
%TD*%
D36*
%TO.C,R5*%
X92500000Y-34510000D03*
X92500000Y-33490000D03*
%TD*%
D10*
%TO.C,C10*%
X103540000Y-32500000D03*
X104500000Y-32500000D03*
%TD*%
D12*
%TO.C,C6*%
X81000000Y-26000000D03*
X81000000Y-25040000D03*
%TD*%
D11*
%TO.C,R2*%
X87510000Y-54000000D03*
X86490000Y-54000000D03*
%TD*%
D14*
%TO.C,SW6*%
X98500000Y-38250000D03*
X105000000Y-38250000D03*
X98500000Y-42750000D03*
X105000000Y-42750000D03*
%TD*%
D12*
%TO.C,C7*%
X82000000Y-26000000D03*
X82000000Y-25040000D03*
%TD*%
D20*
%TO.C,R4*%
X97480000Y-22000000D03*
X98500000Y-22000000D03*
%TD*%
D11*
%TO.C,R9*%
X72010000Y-31500000D03*
X70990000Y-31500000D03*
%TD*%
D12*
%TO.C,C4*%
X79000000Y-26000000D03*
X79000000Y-25040000D03*
%TD*%
D20*
%TO.C,R7*%
X67490000Y-31000000D03*
X68510000Y-31000000D03*
%TD*%
D21*
%TO.C,D4*%
X78500000Y-58000000D03*
X75200000Y-58000000D03*
%TD*%
D37*
%TO.C,J2*%
X76610000Y-20000000D03*
D38*
X79150000Y-20000000D03*
X81690000Y-20000000D03*
X84230000Y-20000000D03*
X86770000Y-20000000D03*
X89310000Y-20000000D03*
X91850000Y-20000000D03*
X94390000Y-20000000D03*
%TD*%
D11*
%TO.C,R10*%
X74510000Y-56000000D03*
X73490000Y-56000000D03*
%TD*%
M02*
